<svg xmlns="http://www.w3.org/2000/svg" width="595" height="200"><g fill="none" stroke-width="2"><path stroke="#f14f1b" d="M344.5 41.3v.2" vector-effect="non-scaling-stroke"/><path stroke="#f5300e" d="M344.5 41.5a56 56 0 0 0 0 87.8" vector-effect="non-scaling-stroke"/><path stroke="#f14f1b" d="m344.5 129.3.3.4" vector-effect="non-scaling-stroke"/><path stroke="#fb7f0e" d="M344.5 129.3a56.2 56.2 0 0 0 0-87.8" vector-effect="non-scaling-stroke"/></g><path fill="#eb001b" d="M344.5 41.3v.2a56 56 0 0 0 0 87.8l.3.4h-.4l-.7.3q-19.2 14.3-42 10.8a56 56 0 0 1-38.1-86 56 56 0 0 1 80.9-13.5"/><path fill="#f79e1b" d="m344.8 129.7-.3-.4a56.2 56.2 0 0 0 0-87.8v-.2q19-14 41.4-11.2a55.8 55.8 0 1 1-41.1 99.6"/><path fill="#ff5f00" d="M344.5 41.5a56.2 56.2 0 0 1 0 87.8 56 56 0 0 1 0-87.8"/><path fill="#2a2a6d" d="M121.7 82c2.2-20.8 31.2-22 46.1-17.8a1.3 1.3-77.3 0 1 .9 1.5l-2.2 13a.5.5 18.7 0 1-.7.3c-6.6-3.1-17.1-5-23.6-.7q-2.8 1.9-1.2 4.9c2.3 4.1 13.8 8.4 16.1 10q13 8.3 7.9 21.5c-7.3 19-35.3 18-50.5 12.7a1 1-75.4 0 1-.5-.9l2.4-13.6a.6.6 18.3 0 1 .9-.4q8.9 4.5 18.5 4.4c3.9 0 10.8-1.3 11.1-6.1.8-9.4-27.3-9.9-25.2-28.9m-70.1 25.3 17.1-43.6a1.2 1-78.5 0 1 1-.7h17.5a.8.7 10.6 0 1 .8 1l-28 65a1 .4-69.2 0 1-.7.7H40.8a.8.7 81.9 0 1-.7-.5L24.3 72.7a2.4 2-87 0 0-1.1-1.4q-8.6-4.3-18-6.6a1.5.9 2 0 1-.8-.6c-.5-.8.7-1 1.3-1q12.2-.2 24.4 0c8.5 0 11.6 0 13.4 8.5l7.5 36.1a.7.5-73.6 0 0 .6-.4m44-43.7a1 .7 3.6 0 1 .9-.6h17l.4.7-11.2 65.3a1.4 1.4 7.2 0 1-1.5 1.1q-7.8-.6-15.7-.1a1 1 1.9 0 1-1-1zm92.1 56.6-3.2 8.5a2.3 2 11.5 0 1-2.2 1.4q-8.4-.7-16.8 0a1 1-78.8 0 1-.4-.8L192.7 67c2.7-5.9 17-3.3 22.2-4a1 1 80.4 0 1 1 .7l14.6 65.8a.3.3 83.5 0 1-.3.4l-15.7-.1a1.3 1.3 83.6 0 1-1.2-1l-1.9-8.5-.6-.6h-22.5zm14.4-37.3-8.6 22.4a.7.7 8.2 0 0 .7 1q6.7-.6 13.3 0a.8.7 85 0 0 .7-1L203.4 83q-.5-2.1-1.3 0"/><path fill="#c18e27" d="M431.5 118.4q2-1 1.2.9l-.7.4c-.7 0-3.6-.2-3.5-1.2l.5-.4q.8 0 1.6.3a1 1 43.3 0 0 1 0"/><path d="M422 168.4q-3.3 2.3-6.7 1c-9.5-4-3.1-20.2 7-13.7q.6.4.5-.3l-.2-6a1 .5 88.4 0 1 .5-.9l2.4.1a1 .5-89.7 0 1 .5.9v19.3l-.5.6q-2 .8-2.9-.8zm-3.7-1.7a4.7 4.4 91.1 0 0 4.5-4.6 4.7 4.4 91.1 0 0-4.3-4.7 4.7 4.4 91.1 0 0-4.5 4.6 4.7 4.4 91.1 0 0 4.3 4.7m-87.2-.2q1.6.6 3.1-.3a.6.4-27.7 0 1 .8 0l.8 2.3a.9.4-22.7 0 1-.7.6c-9.8 4.2-8-6.2-8.6-11.1a.6.4 78.6 0 0-.5-.5q-3 1-2.2-2.5a.7.5-74.7 0 1 .7-.5q.9.2 1.8 0a.9.6 85.6 0 0 .4-.7v-3a.7.5-89 0 1 .6-.8l2.3.2a.9.4-89.5 0 1 .4.8v3.3a.7.5-1.7 0 0 .7.4l3.8-.2a.7.5-1.6 0 1 .8.5v2a.8.5 0 0 1-.8.5h-3.7a.7.4 1.2 0 0-.7.4q-.4 4 .2 8a1.2.4 17.9 0 0 .8.5M275.7 156a.8.6 43.9 0 0 1 0c2.5-2.6 7.5-2.6 9.5.5 1.7 2.8 1 8.5 1 12.1a.8.5-89.5 0 1-.5.8h-2.2a.8.5 89.5 0 1-.5-.7l-.2-9q0-2.6-2.9-2.4c-5.2.3-4 7.8-3.7 11a.8.3 84.2 0 1-.2 1h-2.8a.8.5 88.8 0 1-.4-.7c0-3.3 1.7-12.5-4.3-11.1q-2.4.5-2.4 3v8.2a.8.5-89.5 0 1-.6.7h-2.3a.8.5 90 0 1-.5-.7v-13.5l.5-.7q1.8-.5 2.9.8a.7.5 51.5 0 0 .7.1q4.2-3 7.9.6m25.8-.3q.4 0 .5-.3a1.2.3-73.5 0 1 .6-1h2.3a.9.4 88.4 0 1 .5 1l.2 11q0 5-3.8 2.1h-.7c-7.5 5.3-15.1-6.2-8.7-12.4 1.9-1.7 6.1-3 8.3-.9a1.9 1.3 64.9 0 0 .8.5m.9 6.3a4.6 4.6 0 0 0-4.6-4.6 4.6 4.6 0 0 0-4.5 4.6 4.6 4.6 0 0 0 4.5 4.5 4.6 4.6 0 0 0 4.6-4.5m15.8 3.4a1.2 1.2 14.5 0 0-1-1.5l-4.7-1c-5.6-1.6-4-8 1-8.6q3.5-.5 6.8.7a1 .6 13.8 0 1 .6.7q.1 1.3-.9 2a1.2.7-47.2 0 1-.8.3c-2-.7-4.7-1.6-6.2-.2q-1.8 1.6.5 2c3.2.8 8.1.7 8 5.2-.2 6-8.8 5-12.2 3.5a1 .7 19.9 0 1-.6-.9q.2-1 1-1.8a.9.6 32.4 0 1 .8-.1c1.6.8 6.9 2 7.7-.3m23.3-1.7v.4a1 .8-67.7 0 0 .2.6q3 3.5 7.4 1a1 .7-40.3 0 1 1 0q2.7 1.4.1 2.9c-4.7 2.6-10.5.9-12-4.6-3.4-11.6 15.6-13.8 13.9-1.4l-.6.6H342zm7.1-3.7c0-3.8-5.2-3.4-7-.6q-.9 1.3.6 1.3h5.8l.6-.6m10.7-4.9 4.5-1a.8.4-7.2 0 1 1 .4l-.6 2.7a.9.5 13.3 0 1-1 .3q-2.4-.7-3.9 1.2a1.6 1.5-27.8 0 0-.3 1v8.7a.9.5 89.4 0 1-.4.9H356a.7.5 89 0 1-.5-.7v-13.4l.4-.6q1.4-.6 2.7.2zm13.5 11.5q2.2.4 4-.9a.8.5-35.8 0 1 1 0q.8 1 1.1 2.2a1 .4-24.6 0 1-.6.7c-13.8 7-17.7-16.3-2.8-14.3q5 .6 2.3 3.7l-.8.2c-4.5-2.4-9 .6-7.3 5.7q.7 2.2 3.1 2.7m19-11.3q.7.8 1.2-.1a1 .3-76.6 0 1 .5-.8h2a.8.5 90 0 1 .5.8v13.4l-.5.7q-1.9.7-2.6-.7a.5.5-31.6 0 0-.8-.2c-6.2 4.3-12-1.8-11.2-8 .5-4.5 6.6-8.4 10.8-5m-3 11.4a4.7 4.4 87.5 0 0 4.1-5 4.7 4.4 87.5 0 0-4.6-4.4 4.7 4.4 87.5 0 0-4.1 4.9 4.7 4.4 87.5 0 0 4.6 4.5"/><path d="M403.8 155.3c1.6-.4 7.7-3.2 5.2 1.8l-.7.4c-6.5-1.5-4.8 7.7-4.8 11.2a.8.5-90 0 1-.5.8h-2.2a.8.5 90 0 1-.5-.7v-13.6a.8.7-12.8 0 1 .4-.6q1.4-.6 2.3.4a.9.7 59.4 0 0 .8.3"/><path fill="#020305" fill-opacity=".6" d="M431.1 167.3q1.7.4 1.4 2a1.2.8-5.5 0 1-.8.6q-1.6.4-2-1.1a1.2 1.2 88.6 0 1 1.4-1.5"/></svg>