<svg xmlns="http://www.w3.org/2000/svg" width="512" height="386pt" viewBox="0 0 384 386"><path d="M47 .5h290a46.5 46.5 0 0 1 46.4 46.3v292.4a46.5 46.5 0 0 1-46.4 46.3H47A46.5 46.5 0 0 1 .6 339.2V46.8A46.5 46.5 0 0 1 47 .5" style="stroke:none;fill-rule:evenodd;fill:#ffcb04;fill-opacity:1"/><path d="M47 14.5h290a32.5 32.5 0 0 1 32.3 32.3v292.4a32.5 32.5 0 0 1-32.3 32.3H47a32.5 32.5 0 0 1-32.3-32.3V46.8A32.5 32.5 0 0 1 47 14.5m0 7h290a25.4 25.4 0 0 1 25.3 25.3v292.4a25.4 25.4 0 0 1-25.3 25.3H47a25.4 25.4 0 0 1-25.3-25.3V46.8A25.4 25.4 0 0 1 47 21.5" style="stroke:none;fill-rule:evenodd;fill:#231f20;fill-opacity:1"/><path d="M133 217.7c8.5 10.8 29 32.5 29 43.9v101.6h-60.2c-4.9-13.8-16.9-18.6-16.9-30.6v-93.9A396 396 0 0 1 50 250.2c-1.8.6-10.2 1.2-10.2-6V128c0-3 1.2-6.6 7.8-9.6 23.5-9.6 68-24.7 75.8-27 5.4-1.3 9.6.5 9.6 6.5z" style="stroke:none;fill-rule:evenodd;fill:#231f20;fill-opacity:1"/><path d="M82.5 243v24.6c-4.2 1.2-12 4.2-14.4 4.2-7.3 0-11.5-6.6-11.5-13.2 0-10.3 18.7-12.7 25.9-15.7m0 28.3v20.5c-4.2 1.2-12 4.2-14.4 4.2-7.9 0-10.3-7.2-10.3-10.9 0-11.4 17.5-12 24.7-13.8m0 24.1v20.4c-4.2 2.4-9 4.2-12 4.2q-12.7-.2-12.7-12c0-9.6 18.7-10.8 24.7-12.6" style="stroke:none;fill-rule:evenodd;fill:#231f20;fill-opacity:1"/><path d="M59 118.4v125.1a38 38 0 0 1-10.8 3.6c-2.4 0-4.8-.6-4.8-3.6V129.2c0-6 9-8.4 15.6-10.8m69.8 95.1c0 3.6-7.2 6.6-11.4 7.8v52.3H115v-66.2c0-9-10.2-11.4-15-11.4-7.3 0-15 6.6-15 11.4V234c-2.5 1.2-4.3 1.8-7.3 3V111.2l45.7-15.7c4.2-1.2 5.4 2.4 5.4 4.9z" style="stroke:none;fill-rule:evenodd;fill:#fff;fill-opacity:1"/><path d="M59 118.4v125.1l18.7-6.6.6-125.7z" style="stroke:none;fill-rule:evenodd;fill:#231f20;fill-opacity:1"/><path d="m88.4 141 13.6-4v8.7q3.1-6.2 6.2-9.5 3.2-3.3 7.7-4.6 6-1.9 9.5 2.2t3.5 14.6v34.2L114 187v-29.6q0-5-1.3-6.7-1.5-1.8-3.8-1-2.6.9-4.3 4.1a25 25 0 0 0-1.6 10.7v25.8l-14.7 4.5Zm67-40.7v20.4l8-2.4v15l-8 2.5v19q-.1 3.5.4 4.5.7 1.5 2.5 1 1.6-.6 4.6-2.8l1 14a45 45 0 0 1-10.1 4.7q-5.5 1.5-8.1.4t-3.8-4.8a44 44 0 0 1-1.3-12.7v-18.9l-5.4 1.7v-15l5.4-1.7v-9.9Zm57.5 35-29.4 8.9q.3 4.8 1.9 6.8 2.2 3 5.5 1.8a9 9 0 0 0 4.2-2.7 18 18 0 0 0 2.5-4.2l14.5-2.5q-3.3 9-8 14a30 30 0 0 1-13.5 7.6q-7.5 2.4-12 .6a14 14 0 0 1-7.2-7.3q-2.8-5.7-2.8-14.6a42 42 0 0 1 5.7-22.1 27 27 0 0 1 15.9-12.6q8.2-2.5 13-.4a14 14 0 0 1 7.2 7.9q2.5 5.8 2.5 16.5Zm-15-5.4q-.3-5.8-2.2-7.8t-4.9-1.1q-3.5 1-5.6 5.6-1.3 2.8-1.7 7.7Zm21.9-28.7 13.7-4.1v8.8q2-6.3 4.1-9.1 2.2-2.8 5.2-3.8 3.3-1 7.1.7l-4.5 16a8 8 0 0 0-4.1-.2q-3 1-4.5 4.7a52 52 0 0 0-2.3 18.3v18l-14.7 4.5Zm47.2 3.1-14 2.2a35 35 0 0 1 2.3-8.8 21 21 0 0 1 9.9-10.6 46 46 0 0 1 18.2-5.3q4.1-.2 6.7 2.3 1.8 1.7 3 5.5 1 4 1 7.7V121q0 3.8.4 5.9.3 2 1.5 5l-13.8 4.2q-1-1.8-1-2.8-.4-1-.6-3.3-3 4.8-5.7 7.3-3.9 3.5-9 5-6.9 2-10.5-1.4-3.5-3.3-3.5-9.9 0-6 2.5-10.8a24 24 0 0 1 9.5-8.7l10.7-6.5q2.4-1.7 5.2-4 0-3.8-1.1-5t-4-.4a11 11 0 0 0-5.4 3.3q-1.4 1.7-2.3 5.4m12.8 7q-3 2.4-6.3 4.6-4.5 3-5.7 5a8 8 0 0 0-1.2 4.2q0 2.4 1.2 3.6t3.5.4q2.5-.7 4.6-3a14 14 0 0 0 3-5q.9-2.7.9-6.5Zm51.7-11.1 14-2q-1.2 6.4-3.9 11.7-2.6 5.2-6.7 9a27 27 0 0 1-10.4 5.6q-6 2-10.1 1.5-4-.3-7-3t-4.6-7q-1.6-4.4-1.6-12.3a46 46 0 0 1 2-14.4 37 37 0 0 1 9.3-14.9 29 29 0 0 1 11-5.8q9.3-2.8 14.3.4t6.9 11.7l-13.8 6.7q-.7-3.2-2.4-4.4t-4.6-.4q-3.6 1.2-5.9 5.5-2.2 4.3-2.2 11.8 0 6.6 2.2 9.4 2.3 2.7 5.7 1.7 3-.9 4.8-3.6 2-2.6 3-7.2" style="stroke:none;fill-rule:nonzero;fill:#231f20;fill-opacity:1"/></svg>