<?xml version="1.0" encoding="UTF-8"?>
<svg xmlns="http://www.w3.org/2000/svg" xmlns:xlink="http://www.w3.org/1999/xlink" width="384pt" height="386pt" viewBox="0 0 384 386" version="1.1">
<g id="surface1">
<path style=" stroke:none;fill-rule:evenodd;fill:rgb(100%,79.598999%,1.599121%);fill-opacity:1;" d="M 47.003906 0.453125 L 336.992188 0.453125 C 362.472656 0.453125 383.359375 21.335938 383.359375 46.816406 L 383.359375 339.183594 C 383.359375 364.664063 362.472656 385.546875 336.992188 385.546875 L 47.003906 385.546875 C 21.527344 385.546875 0.640625 364.664063 0.640625 339.183594 L 0.640625 46.816406 C 0.640625 21.335938 21.523438 0.453125 47.003906 0.453125 "/>
<path style=" stroke:none;fill-rule:evenodd;fill:rgb(13.699341%,12.199402%,12.5%);fill-opacity:1;" d="M 47.003906 14.515625 L 336.992188 14.515625 C 354.710938 14.515625 369.296875 29.097656 369.296875 46.816406 L 369.296875 339.183594 C 369.296875 356.902344 354.710938 371.484375 336.992188 371.484375 L 47.003906 371.484375 C 29.289063 371.484375 14.703125 356.902344 14.703125 339.183594 L 14.703125 46.816406 C 14.703125 29.097656 29.289063 14.515625 47.003906 14.515625 Z M 47.003906 21.546875 L 336.992188 21.546875 C 350.832031 21.546875 362.261719 32.980469 362.261719 46.816406 L 362.261719 339.183594 C 362.261719 353.019531 350.832031 364.453125 336.992188 364.453125 L 47.003906 364.453125 C 33.167969 364.453125 21.734375 353.023438 21.734375 339.183594 L 21.734375 46.816406 C 21.734375 32.980469 33.167969 21.550781 47.003906 21.546875 "/>
<path style=" stroke:none;fill-rule:evenodd;fill:rgb(13.699341%,12.199402%,12.5%);fill-opacity:1;" d="M 133.039063 217.664063 C 141.460938 228.492188 161.917969 250.152344 161.917969 261.582031 L 161.917969 363.25 L 101.753906 363.25 C 96.941406 349.414063 84.910156 344.597656 84.910156 332.566406 L 84.910156 238.722656 C 81.296875 240.527344 55.429688 248.949219 50.011719 250.152344 C 48.207031 250.753906 39.785156 251.355469 39.785156 244.136719 L 39.785156 128.03125 C 39.785156 125.019531 40.988281 121.410156 47.605469 118.402344 C 71.070313 108.777344 115.59375 93.738281 123.414063 91.332031 C 128.828125 90.128906 133.039063 91.933594 133.039063 97.949219 L 133.039063 217.664063 "/>
<path style=" stroke:none;fill-rule:evenodd;fill:rgb(13.699341%,12.199402%,12.5%);fill-opacity:1;" d="M 82.5 242.933594 L 82.5 267.597656 C 78.289063 268.800781 70.46875 271.808594 68.0625 271.808594 C 60.84375 271.808594 56.632813 265.191406 56.632813 258.574219 C 56.632813 248.34375 75.28125 245.941406 82.5 242.933594 "/>
<path style=" stroke:none;fill-rule:evenodd;fill:rgb(13.699341%,12.199402%,12.5%);fill-opacity:1;" d="M 82.5 271.207031 L 82.5 291.660156 C 78.289063 292.863281 70.46875 295.871094 68.0625 295.871094 C 60.242188 295.871094 57.835938 288.652344 57.835938 285.042969 C 57.835938 273.613281 75.28125 273.011719 82.5 271.207031 "/>
<path style=" stroke:none;fill-rule:evenodd;fill:rgb(13.699341%,12.199402%,12.5%);fill-opacity:1;" d="M 82.5 295.269531 L 82.5 315.722656 C 78.289063 318.128906 73.476563 319.933594 70.46875 319.933594 C 62.046875 319.933594 57.835938 315.722656 57.835938 307.902344 C 57.835938 298.277344 76.484375 297.074219 82.5 295.269531 "/>
<path style=" stroke:none;fill-rule:evenodd;fill:rgb(100%,100%,100%);fill-opacity:1;" d="M 59.039063 118.402344 L 59.039063 243.53125 C 56.632813 244.734375 50.617188 247.144531 48.207031 247.144531 C 45.800781 247.144531 43.398438 246.539063 43.398438 243.535156 L 43.398438 129.234375 C 43.398438 123.214844 52.421875 120.8125 59.039063 118.402344 "/>
<path style=" stroke:none;fill-rule:evenodd;fill:rgb(100%,100%,100%);fill-opacity:1;" d="M 128.828125 213.453125 C 128.828125 217.0625 121.609375 220.070313 117.398438 221.273438 L 117.398438 273.613281 L 114.988281 273.613281 L 114.988281 207.4375 C 114.988281 198.414063 104.761719 196.007813 99.949219 196.007813 C 92.730469 196.007813 84.910156 202.625 84.910156 207.4375 L 84.910156 233.90625 C 82.5 235.109375 80.699219 235.710938 77.6875 236.914063 L 77.6875 111.183594 L 123.414063 95.542969 C 127.625 94.339844 128.828125 97.949219 128.828125 100.355469 L 128.828125 213.453125 "/>
<path style=" stroke:none;fill-rule:evenodd;fill:rgb(13.699341%,12.199402%,12.5%);fill-opacity:1;" d="M 59.039063 118.402344 L 59.039063 243.53125 L 77.6875 236.914063 L 78.289063 111.183594 L 59.039063 118.402344 "/>
<path style=" stroke:none;fill-rule:nonzero;fill:rgb(13.699341%,12.199402%,12.5%);fill-opacity:1;" d="M 88.371094 141.011719 L 102.042969 136.871094 L 102.042969 145.613281 C 104.085938 141.421875 106.152344 138.253906 108.246094 136.085938 C 110.339844 133.914063 112.886719 132.363281 115.886719 131.457031 C 119.949219 130.226563 123.121094 130.976563 125.425781 133.664063 C 127.714844 136.359375 128.859375 141.246094 128.859375 148.328125 L 128.859375 182.5 L 114.117188 186.960938 L 114.117188 157.402344 C 114.117188 154.035156 113.671875 151.785156 112.785156 150.65625 C 111.890625 149.511719 110.644531 149.195313 109.035156 149.683594 C 107.261719 150.21875 105.808594 151.609375 104.714844 153.824219 C 103.605469 156.039063 103.054688 159.613281 103.054688 164.503906 L 103.054688 190.3125 L 88.371094 194.753906 Z M 155.328125 100.292969 L 155.328125 120.746094 L 163.398438 118.300781 L 163.398438 133.332031 L 155.328125 135.773438 L 155.328125 154.847656 C 155.328125 157.144531 155.488281 158.617188 155.796875 159.265625 C 156.273438 160.261719 157.109375 160.59375 158.316406 160.230469 C 159.398438 159.902344 160.914063 158.996094 162.859375 157.523438 L 163.941406 171.433594 C 160.3125 173.636719 156.925781 175.214844 153.777344 176.167969 C 150.121094 177.273438 147.425781 177.433594 145.703125 176.640625 C 143.96875 175.851563 142.6875 174.238281 141.863281 171.808594 C 141.027344 169.382813 140.621094 165.152344 140.621094 159.140625 L 140.621094 140.226563 L 135.207031 141.863281 L 135.207031 126.835938 L 140.621094 125.195313 L 140.621094 115.316406 Z M 212.890625 135.296875 L 183.480469 144.199219 C 183.742188 147.4375 184.378906 149.699219 185.390625 151.015625 C 186.804688 152.921875 188.664063 153.515625 190.9375 152.824219 C 192.378906 152.390625 193.757813 151.472656 195.050781 150.0625 C 195.847656 149.179688 196.699219 147.800781 197.609375 145.902344 L 212.066406 143.390625 C 209.851563 149.46875 207.195313 154.140625 204.070313 157.4375 C 200.941406 160.714844 196.464844 163.246094 190.617188 165.015625 C 185.550781 166.550781 181.5625 166.753906 178.644531 165.632813 C 175.742188 164.507813 173.328125 162.042969 171.421875 158.25 C 169.515625 154.457031 168.554688 149.617188 168.554688 143.707031 C 168.554688 135.3125 170.476563 127.925781 174.300781 121.585938 C 178.140625 115.222656 183.433594 111.011719 190.1875 108.96875 C 195.664063 107.308594 199.996094 107.175781 203.160156 108.550781 C 206.332031 109.902344 208.757813 112.554688 210.40625 116.460938 C 212.066406 120.378906 212.890625 125.882813 212.890625 132.964844 Z M 197.976563 129.949219 C 197.683594 126.046875 196.921875 123.429688 195.6875 122.089844 C 194.445313 120.738281 192.820313 120.367188 190.804688 120.976563 C 188.464844 121.683594 186.609375 123.5625 185.203125 126.574219 C 184.320313 128.46875 183.753906 131.039063 183.519531 134.324219 Z M 219.78125 101.238281 L 233.515625 97.078125 L 233.515625 105.871094 C 234.84375 101.671875 236.210938 98.632813 237.613281 96.773438 C 239.015625 94.914063 240.753906 93.664063 242.820313 93.035156 C 244.984375 92.382813 247.347656 92.617188 249.917969 93.722656 L 245.378906 109.78125 C 243.65625 109.28125 242.277344 109.199219 241.269531 109.503906 C 239.347656 110.085938 237.859375 111.65625 236.800781 114.191406 C 235.289063 117.792969 234.523438 123.894531 234.523438 132.5 L 234.523438 150.519531 L 219.78125 154.980469 Z M 267.046875 104.328125 L 253.03125 106.496094 C 253.5625 102.898438 254.324219 99.953125 255.320313 97.683594 C 256.316406 95.414063 257.746094 93.269531 259.628906 91.25 C 260.96875 89.789063 262.828125 88.414063 265.179688 87.132813 C 267.527344 85.851563 270.074219 84.785156 272.820313 83.957031 C 277.214844 82.628906 280.757813 81.898438 283.414063 81.785156 C 286.085938 81.671875 288.3125 82.445313 290.085938 84.105469 C 291.339844 85.246094 292.324219 87.089844 293.050781 89.648438 C 293.765625 92.234375 294.121094 94.769531 294.121094 97.308594 L 294.121094 121.042969 C 294.121094 123.566406 294.242188 125.515625 294.464844 126.882813 C 294.699219 128.246094 295.191406 129.925781 295.964844 131.921875 L 282.195313 136.089844 C 281.644531 134.875 281.285156 133.929688 281.113281 133.253906 C 280.941406 132.582031 280.78125 131.488281 280.609375 129.988281 C 278.691406 133.175781 276.769531 135.605469 274.875 137.285156 C 272.277344 139.558594 269.265625 141.210938 265.828125 142.25 C 261.265625 143.632813 257.796875 143.199219 255.421875 140.945313 C 253.058594 138.707031 251.875 135.402344 251.875 131.046875 C 251.875 126.953125 252.726563 123.347656 254.433594 120.203125 C 256.144531 117.039063 259.285156 114.140625 263.875 111.472656 C 269.386719 108.246094 272.953125 106.078125 274.59375 104.964844 C 276.214844 103.851563 277.949219 102.496094 279.773438 100.941406 C 279.773438 98.402344 279.402344 96.753906 278.664063 95.957031 C 277.914063 95.183594 276.609375 95.058594 274.726563 95.628906 C 272.328125 96.355469 270.53125 97.449219 269.324219 98.886719 C 268.390625 100.015625 267.628906 101.835938 267.046875 104.328125 Z M 279.773438 111.308594 C 277.753906 112.9375 275.648438 114.472656 273.472656 115.910156 C 270.492188 117.914063 268.597656 119.59375 267.8125 120.902344 C 266.988281 122.277344 266.582031 123.660156 266.582031 125.078125 C 266.582031 126.699219 266.988281 127.890625 267.785156 128.6875 C 268.597656 129.460938 269.78125 129.621094 271.34375 129.148438 C 272.980469 128.652344 274.492188 127.640625 275.910156 126.105469 C 277.3125 124.558594 278.308594 122.894531 278.898438 121.125 C 279.488281 119.339844 279.773438 117.164063 279.773438 114.605469 Z M 331.480469 100.164063 L 345.421875 98.175781 C 344.660156 102.480469 343.390625 106.40625 341.644531 109.925781 C 339.886719 113.445313 337.644531 116.4375 334.914063 118.921875 C 332.195313 121.386719 328.722656 123.265625 324.515625 124.539063 C 320.453125 125.769531 317.070313 126.257813 314.375 126.019531 C 311.667969 125.769531 309.34375 124.761719 307.398438 122.96875 C 305.441406 121.175781 303.914063 118.855469 302.820313 115.972656 C 301.714844 113.113281 301.160156 109.03125 301.160156 103.726563 C 301.160156 98.199219 301.824219 93.386719 303.179688 89.296875 C 304.160156 86.304688 305.503906 83.480469 307.214844 80.820313 C 308.925781 78.160156 310.671875 76.023438 312.480469 74.441406 C 315.335938 71.917969 319.003906 69.980469 323.46875 68.628906 C 329.71875 66.734375 334.484375 66.867188 337.769531 69.015625 C 341.042969 71.152344 343.355469 75.046875 344.671875 80.695313 L 330.863281 87.445313 C 330.433594 85.28125 329.648438 83.789063 328.503906 82.980469 C 327.359375 82.152344 325.832031 82.042969 323.898438 82.628906 C 321.476563 83.363281 319.507813 85.183594 318.007813 88.074219 C 316.503906 90.980469 315.753906 94.90625 315.753906 99.863281 C 315.753906 104.285156 316.503906 107.410156 317.992188 109.257813 C 319.480469 111.105469 321.378906 111.671875 323.691406 110.96875 C 325.609375 110.390625 327.222656 109.210938 328.539063 107.429688 C 329.84375 105.652344 330.828125 103.230469 331.480469 100.164063 "/>
</g>
</svg>
